<?xml version="1.0" encoding="UTF-8"?>
<svg xmlns="http://www.w3.org/2000/svg" xmlns:xlink="http://www.w3.org/1999/xlink" width="40px" height="40px" viewBox="0 0 300 300" version="1.1">
<g id="surface1">
<path style=" stroke:none;fill-rule:nonzero;fill:rgb(0.392157%,0%,0%);fill-opacity:1;" d="M 166.5 300.75 C 111.015625 300.75 55.910156 300.75 0.777344 300.75 C 0.777344 200.796875 0.777344 100.847656 0.777344 0.824219 C 100.671875 0.824219 200.589844 0.824219 300.628906 0.824219 C 300.628906 100.75 300.628906 200.75 300.628906 300.75 C 256.097656 300.75 211.484375 300.75 166.5 300.75 M 89.660156 249.605469 C 89.886719 249.238281 90.109375 248.875 90.824219 248.347656 C 92.496094 247.191406 92.855469 245.886719 91.160156 244.476562 C 88.609375 242.355469 86.019531 240.28125 83.234375 237.691406 C 81.480469 236.03125 81.410156 234.222656 82.230469 231.980469 C 84.054688 227.011719 85.613281 221.953125 87.636719 216.574219 C 89.5 212.40625 91.363281 208.234375 93.226562 204.066406 C 92.738281 203.867188 92.25 203.667969 91.761719 203.46875 C 90.097656 207.816406 88.433594 212.164062 86.386719 216.886719 C 84.425781 221.996094 82.488281 227.121094 80.488281 232.214844 C 79.332031 235.164062 80.097656 237.300781 83.1875 239.136719 C 85.003906 240.835938 86.984375 242.394531 88.5625 244.292969 C 89.375 245.273438 89.46875 246.851562 89.519531 248.4375 C 89.425781 248.875 89.335938 249.308594 88.960938 249.761719 C 89.058594 249.761719 89.15625 249.757812 89.660156 249.605469 M 74.917969 159.910156 C 74.183594 155.6875 73.445312 151.464844 72.710938 147.242188 C 72.230469 147.332031 71.753906 147.417969 71.273438 147.507812 C 72.109375 151.855469 72.949219 156.203125 73.894531 161.191406 C 75.210938 169.777344 77.824219 177.824219 83.367188 185.082031 C 81.316406 186.128906 79.269531 187.171875 76.929688 188.367188 C 76.523438 185.457031 75.929688 183.132812 75.953125 180.816406 C 75.980469 177.921875 74.542969 177.484375 72.183594 177.742188 C 69.023438 178.082031 65.851562 178.324219 62.109375 178.660156 C 63.148438 174.410156 63.820312 170.867188 64.90625 167.460938 C 65.871094 164.445312 64.890625 163.117188 61.976562 162.34375 C 57.941406 161.269531 53.996094 159.875 49.03125 158.308594 C 53.175781 154.164062 56.46875 150.621094 60.046875 147.398438 C 62.015625 145.621094 62.074219 144.328125 60.34375 142.457031 C 56.410156 138.199219 51.765625 135.25 46.03125 134.109375 C 44.496094 133.804688 42.976562 133.394531 40.484375 132.804688 C 46.5625 128.535156 51.746094 124.703125 57.140625 121.1875 C 59.652344 119.550781 60.019531 117.734375 58.378906 115.628906 C 54.636719 110.824219 50.707031 106.164062 46.808594 101.484375 C 45.988281 100.5 44.957031 99.691406 43.3125 98.121094 C 45.550781 97.914062 46.742188 97.785156 47.941406 97.691406 C 54.167969 97.207031 60.398438 96.800781 66.617188 96.234375 C 71.945312 95.746094 72.160156 95.601562 70.71875 90.367188 C 69.242188 85.015625 67.28125 79.796875 65.429688 74.210938 C 71.308594 74.773438 76.789062 76.640625 81.984375 79.402344 C 86.214844 81.652344 86.488281 81.78125 87.792969 77.015625 C 89.621094 70.347656 90.945312 63.542969 92.679688 55.941406 C 98.296875 62.722656 103.761719 69.328125 109.390625 76.125 C 115.671875 68.207031 123.109375 62.402344 131.894531 58.675781 C 132.414062 65.765625 132.664062 72.589844 133.472656 79.351562 C 134.332031 86.550781 134.554688 86.507812 141.257812 84.050781 C 146.074219 82.285156 150.914062 80.566406 155.746094 78.828125 C 155.914062 79.082031 156.082031 79.332031 156.25 79.585938 C 152.148438 86.660156 148.042969 93.734375 143.601562 101.398438 C 151.117188 102.597656 158.089844 103.707031 166.007812 104.96875 C 159.804688 110.871094 154.449219 115.972656 148.644531 121.496094 C 155.070312 124.273438 160.78125 126.742188 166.488281 129.210938 C 166.527344 129.714844 166.5625 130.214844 166.601562 130.71875 C 158.875 134.304688 151.144531 137.886719 142.472656 141.90625 C 147.464844 145.21875 152.089844 148.285156 157.40625 151.8125 C 152.050781 154.160156 147.414062 156.195312 142.535156 158.335938 C 143.621094 161.550781 144.714844 164.800781 145.9375 168.417969 C 143.4375 168.851562 141.386719 169.238281 139.324219 169.550781 C 136.070312 170.046875 135.558594 171.296875 137.597656 174 C 138.761719 175.542969 139.980469 177.042969 141.457031 178.914062 C 138.609375 179.8125 136.324219 180.433594 134.121094 181.269531 C 132.882812 181.742188 131.375 182.292969 130.683594 183.292969 C 128.09375 187.042969 124.738281 189.515625 120.503906 191.191406 C 119.441406 191.613281 118.585938 193.914062 118.628906 195.320312 C 118.660156 196.316406 120.203125 197.804688 121.339844 198.136719 C 127.433594 199.898438 133.65625 201.226562 139.730469 203.050781 C 141.066406 203.449219 142.628906 205.078125 143 206.4375 C 148.578125 226.78125 153.964844 247.179688 159.414062 267.558594 C 159.664062 268.484375 160.089844 269.363281 160.429688 270.265625 C 161.152344 269.566406 161.242188 269.082031 161.292969 268.59375 C 162.40625 258.019531 163.453125 247.484375 169.199219 238.046875 C 171.101562 234.921875 172.644531 232.914062 176.304688 235.363281 C 176.394531 235.421875 176.699219 235.152344 177.40625 234.746094 C 173.566406 232.0625 169.617188 229.828125 166.332031 226.863281 C 162.863281 223.726562 160.023438 219.894531 156.886719 216.335938 C 156.054688 216.59375 154.925781 217.328125 153.925781 217.179688 C 147.832031 216.265625 144.394531 208.425781 148.507812 203.914062 C 151.296875 200.855469 150.527344 198.773438 148.597656 196.261719 C 144.664062 191.144531 144.898438 185.789062 146.898438 179.953125 C 148.121094 176.378906 148.304688 172.457031 149.074219 168.714844 C 149.390625 167.164062 149.746094 165.503906 150.5625 164.1875 C 152.339844 161.328125 154.421875 158.660156 156.378906 155.914062 C 167.691406 140.011719 183.558594 134.519531 202.40625 135.582031 C 209.117188 135.957031 214.773438 138.882812 220.691406 141.664062 C 233.089844 147.492188 239.601562 158.171875 242.855469 170.28125 C 245.28125 179.3125 246.3125 189.1875 243.492188 198.773438 C 243.144531 199.957031 243.554688 201.691406 244.230469 202.789062 C 247.265625 207.683594 245.949219 213.6875 240.574219 215.988281 C 237.476562 217.3125 235.570312 219.351562 233.683594 221.902344 C 230.503906 226.207031 227.019531 230.285156 223.773438 234.328125 C 226.066406 239.996094 229.019531 247.285156 231.757812 254.046875 C 231.601562 251.609375 230.691406 248.738281 233.820312 245.929688 C 266.242188 216.800781 281.246094 180.511719 277.582031 136.898438 C 275.046875 106.707031 262.867188 80.632812 241.582031 59.3125 C 212.59375 30.285156 177.308594 17.675781 136.304688 21.667969 C 107.085938 24.511719 81.839844 36.371094 60.992188 56.726562 C 31.605469 85.425781 18.761719 120.652344 22.417969 161.660156 C 24.949219 190.042969 36.488281 214.5 55.382812 235.636719 C 57.535156 238.046875 60.777344 239.835938 59.789062 244.042969 C 60.332031 243.285156 60.617188 242.617188 60.816406 241.921875 C 64.046875 230.769531 67.355469 219.632812 70.425781 208.433594 C 71.203125 205.601562 72.464844 204 75.382812 203.144531 C 81.847656 201.246094 88.234375 199.039062 94.574219 196.742188 C 95.730469 196.320312 97.351562 194.78125 97.265625 193.902344 C 97.148438 192.667969 95.832031 191.269531 94.667969 190.476562 C 91.492188 188.316406 88.125 186.4375 84.707031 183.945312 C 79.46875 176.960938 77.136719 168.757812 74.917969 159.910156 M 136.996094 229.40625 C 137.292969 229.597656 137.589844 229.789062 137.882812 229.976562 C 137.921875 229.570312 137.960938 229.160156 137.921875 228.199219 C 135.058594 220.683594 131.9375 213.308594 127.21875 206.804688 C 126.929688 206.957031 126.640625 207.113281 126.347656 207.269531 C 129.839844 214.480469 133.328125 221.691406 136.996094 229.40625 M 193.683594 192.570312 C 195.238281 186.226562 193.902344 180.792969 188.761719 176.398438 C 185.960938 182.058594 185.332031 182.777344 179.109375 184.175781 C 175.125 185.070312 171.015625 185.558594 166.933594 185.832031 C 162 186.160156 161.441406 186.675781 162.464844 191.632812 C 163.792969 198.082031 169.960938 203.117188 177.328125 203.757812 C 184.5 204.382812 190.765625 200.277344 193.683594 192.570312 M 222.089844 202.308594 C 230.324219 199.464844 234.386719 193.300781 232.867188 186.425781 C 226.734375 185.523438 220.707031 184.757812 214.734375 183.707031 C 210.90625 183.035156 207.742188 181.199219 206.53125 176.632812 C 202.144531 180.671875 200.425781 185.238281 201.363281 190.625 C 202.871094 199.304688 211.203125 204.113281 222.089844 202.308594 M 80.253906 121.988281 C 79.957031 124.535156 79.46875 127.082031 79.417969 129.632812 C 79.375 132.023438 80.695312 132.449219 83.140625 132.253906 C 88.304688 131.839844 93.558594 131.722656 98.710938 132.175781 C 101.964844 132.460938 102.972656 131.46875 103.207031 128.519531 C 103.664062 122.734375 100.710938 117.953125 95.242188 115.953125 C 89.496094 113.847656 84.730469 115.636719 80.253906 121.988281 M 109.402344 128.238281 C 109.277344 130.527344 110.839844 130.304688 112.40625 130.441406 C 117.746094 130.90625 123.066406 131.621094 128.410156 132.015625 C 129.871094 132.125 132.285156 131.902344 132.707031 131.054688 C 133.785156 128.894531 134.328125 126.378906 131.5 124.488281 C 126.980469 121.46875 122.132812 119.871094 116.695312 120.054688 C 110.390625 120.265625 109.421875 121.257812 109.402344 128.238281 M 133.582031 240.441406 C 132.21875 241.726562 130.679688 242.875 129.574219 244.351562 C 129 245.121094 128.65625 246.960938 129.125 247.46875 C 131.289062 249.808594 133.773438 251.847656 136.144531 253.996094 C 136.382812 253.75 136.625 253.503906 136.863281 253.257812 C 134.679688 250.890625 132.492188 248.523438 130.210938 246.050781 C 133.171875 243.28125 135.878906 240.902344 138.40625 238.347656 C 141.019531 235.707031 140.875 234.027344 138.121094 231.296875 C 138.125 236.1875 138.125 236.1875 133.582031 240.441406 M 185.136719 236.269531 C 184.085938 236.269531 183.03125 236.269531 181.980469 236.269531 C 181.980469 236.839844 181.980469 237.410156 181.980469 237.980469 C 188.777344 238.527344 195.574219 239.078125 202.367188 239.625 C 202.398438 239.25 202.429688 238.875 202.460938 238.5 C 196.882812 237.792969 191.304688 237.082031 185.136719 236.269531 M 120.832031 213.03125 C 121.53125 219.800781 122.230469 226.566406 122.929688 233.332031 C 123.433594 233.273438 123.941406 233.214844 124.449219 233.152344 C 123.59375 225.730469 122.738281 218.304688 121.882812 210.878906 C 121.554688 210.914062 121.222656 210.949219 120.894531 210.980469 C 120.871094 211.476562 120.851562 211.96875 120.832031 213.03125 M 95.378906 211.632812 C 95.378906 217.378906 95.378906 223.128906 95.378906 228.875 C 95.671875 228.878906 95.960938 228.882812 96.25 228.886719 C 96.25 222.148438 96.25 215.414062 96.25 208.265625 C 95.921875 209.390625 95.6875 210.203125 95.378906 211.632812 M 138.34375 255.367188 C 138.34375 255.367188 138.375 255.367188 138.34375 255.367188 Z M 138.34375 255.367188 "/>
<path style=" stroke:none;fill-rule:nonzero;fill:rgb(75.294119%,0%,0%);fill-opacity:1;" d="M 84.832031 184.445312 C 88.125 186.4375 91.492188 188.316406 94.667969 190.476562 C 95.832031 191.269531 97.148438 192.667969 97.265625 193.902344 C 97.351562 194.78125 95.730469 196.320312 94.574219 196.742188 C 88.234375 199.039062 81.847656 201.246094 75.382812 203.144531 C 72.464844 204 71.203125 205.601562 70.425781 208.433594 C 67.355469 219.632812 64.046875 230.769531 60.816406 241.921875 C 60.617188 242.617188 60.332031 243.285156 59.789062 244.042969 C 60.777344 239.835938 57.535156 238.046875 55.382812 235.636719 C 36.488281 214.5 24.949219 190.042969 22.417969 161.660156 C 18.761719 120.652344 31.605469 85.425781 60.992188 56.726562 C 81.839844 36.371094 107.085938 24.511719 136.304688 21.667969 C 177.308594 17.675781 212.59375 30.285156 241.582031 59.3125 C 262.867188 80.632812 275.046875 106.707031 277.582031 136.898438 C 281.246094 180.511719 266.242188 216.800781 233.820312 245.929688 C 230.691406 248.738281 231.601562 251.609375 231.757812 254.046875 C 229.019531 247.285156 226.066406 239.996094 223.773438 234.328125 C 227.019531 230.285156 230.503906 226.207031 233.683594 221.902344 C 235.570312 219.351562 237.476562 217.3125 240.574219 215.988281 C 245.949219 213.6875 247.265625 207.683594 244.230469 202.789062 C 243.554688 201.691406 243.144531 199.957031 243.492188 198.773438 C 246.3125 189.1875 245.28125 179.3125 242.855469 170.28125 C 239.601562 158.171875 233.089844 147.492188 220.691406 141.664062 C 214.773438 138.882812 209.117188 135.957031 202.40625 135.582031 C 183.558594 134.519531 167.691406 140.011719 156.378906 155.914062 C 154.421875 158.660156 152.339844 161.328125 150.5625 164.1875 C 149.746094 165.503906 149.390625 167.164062 149.074219 168.714844 C 148.304688 172.457031 148.121094 176.378906 146.898438 179.953125 C 144.898438 185.789062 144.664062 191.144531 148.597656 196.261719 C 150.527344 198.773438 151.296875 200.855469 148.507812 203.914062 C 144.394531 208.425781 147.832031 216.265625 153.925781 217.179688 C 154.925781 217.328125 156.054688 216.59375 156.886719 216.335938 C 160.023438 219.894531 162.863281 223.726562 166.332031 226.863281 C 169.617188 229.828125 173.566406 232.0625 177.40625 234.746094 C 176.699219 235.152344 176.394531 235.421875 176.304688 235.363281 C 172.644531 232.914062 171.101562 234.921875 169.199219 238.046875 C 163.453125 247.484375 162.40625 258.019531 161.292969 268.59375 C 161.242188 269.082031 161.152344 269.566406 160.429688 270.265625 C 160.089844 269.363281 159.664062 268.484375 159.414062 267.558594 C 153.964844 247.179688 148.578125 226.78125 143 206.4375 C 142.628906 205.078125 141.066406 203.449219 139.730469 203.050781 C 133.65625 201.226562 127.433594 199.898438 121.339844 198.136719 C 120.203125 197.804688 118.660156 196.316406 118.628906 195.320312 C 118.585938 193.914062 119.441406 191.613281 120.503906 191.191406 C 124.738281 189.515625 128.09375 187.042969 130.683594 183.292969 C 131.375 182.292969 132.882812 181.742188 134.121094 181.269531 C 136.324219 180.433594 138.609375 179.8125 141.457031 178.914062 C 139.980469 177.042969 138.761719 175.542969 137.597656 174 C 135.558594 171.296875 136.070312 170.046875 139.324219 169.550781 C 141.386719 169.238281 143.4375 168.851562 145.9375 168.417969 C 144.714844 164.800781 143.621094 161.550781 142.535156 158.335938 C 147.414062 156.195312 152.050781 154.160156 157.40625 151.8125 C 152.089844 148.285156 147.464844 145.21875 142.472656 141.90625 C 151.144531 137.886719 158.875 134.304688 166.601562 130.71875 C 166.5625 130.214844 166.527344 129.714844 166.488281 129.210938 C 160.78125 126.742188 155.070312 124.273438 148.644531 121.496094 C 154.449219 115.972656 159.804688 110.871094 166.007812 104.96875 C 158.089844 103.707031 151.117188 102.597656 143.601562 101.398438 C 148.042969 93.734375 152.148438 86.660156 156.25 79.585938 C 156.082031 79.332031 155.914062 79.082031 155.746094 78.828125 C 150.914062 80.566406 146.074219 82.285156 141.257812 84.050781 C 134.554688 86.507812 134.332031 86.550781 133.472656 79.351562 C 132.664062 72.589844 132.414062 65.765625 131.894531 58.675781 C 123.109375 62.402344 115.671875 68.207031 109.390625 76.125 C 103.761719 69.328125 98.296875 62.722656 92.679688 55.941406 C 90.945312 63.542969 89.621094 70.347656 87.792969 77.015625 C 86.488281 81.78125 86.214844 81.652344 81.984375 79.402344 C 76.789062 76.640625 71.308594 74.773438 65.429688 74.210938 C 67.28125 79.796875 69.242188 85.015625 70.71875 90.367188 C 72.160156 95.601562 71.945312 95.746094 66.617188 96.234375 C 60.398438 96.800781 54.167969 97.207031 47.941406 97.691406 C 46.742188 97.785156 45.550781 97.914062 43.3125 98.121094 C 44.957031 99.691406 45.988281 100.5 46.808594 101.484375 C 50.707031 106.164062 54.636719 110.824219 58.378906 115.628906 C 60.019531 117.734375 59.652344 119.550781 57.140625 121.1875 C 51.746094 124.703125 46.5625 128.535156 40.484375 132.804688 C 42.976562 133.394531 44.496094 133.804688 46.03125 134.109375 C 51.765625 135.25 56.410156 138.199219 60.34375 142.457031 C 62.074219 144.328125 62.015625 145.621094 60.046875 147.398438 C 56.46875 150.621094 53.175781 154.164062 49.03125 158.308594 C 53.996094 159.875 57.941406 161.269531 61.976562 162.34375 C 64.890625 163.117188 65.871094 164.445312 64.90625 167.460938 C 63.820312 170.867188 63.148438 174.410156 62.109375 178.660156 C 65.851562 178.324219 69.023438 178.082031 72.183594 177.742188 C 74.542969 177.484375 75.980469 177.921875 75.953125 180.816406 C 75.929688 183.132812 76.523438 185.457031 76.929688 188.367188 C 79.269531 187.171875 81.316406 186.128906 83.675781 184.8125 C 84.269531 184.507812 84.550781 184.476562 84.832031 184.445312 Z M 84.832031 184.445312 "/>
<path style=" stroke:none;fill-rule:nonzero;fill:rgb(96.470588%,96.470588%,96.470588%);fill-opacity:1;" d="M 193.613281 192.851562 C 190.765625 200.277344 184.5 204.382812 177.328125 203.757812 C 169.960938 203.117188 163.792969 198.082031 162.464844 191.632812 C 161.441406 186.675781 162 186.160156 166.933594 185.832031 C 171.015625 185.558594 175.125 185.070312 179.109375 184.175781 C 185.332031 182.777344 185.960938 182.058594 188.761719 176.398438 C 193.902344 180.792969 195.238281 186.226562 193.613281 192.851562 Z M 193.613281 192.851562 "/>
<path style=" stroke:none;fill-rule:nonzero;fill:rgb(96.862745%,96.862745%,96.862745%);fill-opacity:1;" d="M 221.792969 202.375 C 211.203125 204.113281 202.871094 199.304688 201.363281 190.625 C 200.425781 185.238281 202.144531 180.671875 206.53125 176.632812 C 207.742188 181.199219 210.90625 183.035156 214.734375 183.707031 C 220.707031 184.757812 226.734375 185.523438 232.867188 186.425781 C 234.386719 193.300781 230.324219 199.464844 221.792969 202.375 Z M 221.792969 202.375 "/>
<path style=" stroke:none;fill-rule:nonzero;fill:rgb(96.470588%,96.470588%,96.470588%);fill-opacity:1;" d="M 80.371094 121.734375 C 84.730469 115.636719 89.496094 113.847656 95.242188 115.953125 C 100.710938 117.953125 103.664062 122.734375 103.207031 128.519531 C 102.972656 131.46875 101.964844 132.460938 98.710938 132.175781 C 93.558594 131.722656 88.304688 131.839844 83.140625 132.253906 C 80.695312 132.449219 79.375 132.023438 79.417969 129.632812 C 79.46875 127.082031 79.957031 124.535156 80.371094 121.734375 Z M 80.371094 121.734375 "/>
<path style=" stroke:none;fill-rule:nonzero;fill:rgb(95.294118%,95.294118%,95.294118%);fill-opacity:1;" d="M 109.402344 127.933594 C 109.421875 121.257812 110.390625 120.265625 116.695312 120.054688 C 122.132812 119.871094 126.980469 121.46875 131.5 124.488281 C 134.328125 126.378906 133.785156 128.894531 132.707031 131.054688 C 132.285156 131.902344 129.871094 132.125 128.410156 132.015625 C 123.066406 131.621094 117.746094 130.90625 112.40625 130.441406 C 110.839844 130.304688 109.277344 130.527344 109.402344 127.933594 Z M 109.402344 127.933594 "/>
<path style=" stroke:none;fill-rule:nonzero;fill:rgb(58.039218%,0%,0%);fill-opacity:1;" d="M 133.777344 240.257812 C 138.125 236.1875 138.125 236.1875 138.121094 231.296875 C 140.875 234.027344 141.019531 235.707031 138.40625 238.347656 C 135.878906 240.902344 133.171875 243.28125 130.210938 246.050781 C 132.492188 248.523438 134.679688 250.890625 136.863281 253.257812 C 136.625 253.503906 136.382812 253.75 136.144531 253.996094 C 133.773438 251.847656 131.289062 249.808594 129.125 247.46875 C 128.65625 246.960938 129 245.121094 129.574219 244.351562 C 130.679688 242.875 132.21875 241.726562 133.777344 240.257812 Z M 133.777344 240.257812 "/>
<path style=" stroke:none;fill-rule:nonzero;fill:rgb(57.647061%,0%,0%);fill-opacity:1;" d="M 136.820312 228.902344 C 133.328125 221.691406 129.839844 214.480469 126.347656 207.269531 C 126.640625 207.113281 126.929688 206.957031 127.21875 206.804688 C 131.9375 213.308594 135.058594 220.683594 137.664062 228.503906 C 137.210938 228.84375 137.015625 228.871094 136.820312 228.902344 Z M 136.820312 228.902344 "/>
<path style=" stroke:none;fill-rule:nonzero;fill:rgb(55.686277%,0%,0%);fill-opacity:1;" d="M 84.769531 184.195312 C 84.550781 184.476562 84.269531 184.507812 83.777344 184.558594 C 77.824219 177.824219 75.210938 169.777344 74.121094 160.863281 C 74.53125 160.53125 74.714844 160.523438 74.898438 160.519531 C 77.136719 168.757812 79.46875 176.960938 84.769531 184.195312 Z M 84.769531 184.195312 "/>
<path style=" stroke:none;fill-rule:nonzero;fill:rgb(50.196081%,0%,0%);fill-opacity:1;" d="M 82.945312 238.691406 C 80.097656 237.300781 79.332031 235.164062 80.488281 232.214844 C 82.488281 227.121094 84.425781 221.996094 86.699219 216.808594 C 87.011719 216.734375 87.277344 216.929688 87.277344 216.929688 C 85.613281 221.953125 84.054688 227.011719 82.230469 231.980469 C 81.410156 234.222656 81.480469 236.03125 83.226562 238.078125 C 83.21875 238.46875 82.945312 238.691406 82.945312 238.691406 Z M 82.945312 238.691406 "/>
<path style=" stroke:none;fill-rule:nonzero;fill:rgb(46.27451%,0%,0%);fill-opacity:1;" d="M 185.433594 236.320312 C 191.304688 237.082031 196.882812 237.792969 202.460938 238.5 C 202.429688 238.875 202.398438 239.25 202.367188 239.625 C 195.574219 239.078125 188.777344 238.527344 181.980469 237.980469 C 181.980469 237.410156 181.980469 236.839844 181.980469 236.269531 C 183.03125 236.269531 184.085938 236.269531 185.433594 236.320312 Z M 185.433594 236.320312 "/>
<path style=" stroke:none;fill-rule:nonzero;fill:rgb(49.019608%,0%,0%);fill-opacity:1;" d="M 120.832031 212.75 C 120.851562 211.96875 120.871094 211.476562 120.894531 210.980469 C 121.222656 210.949219 121.554688 210.914062 121.882812 210.878906 C 122.738281 218.304688 123.59375 225.730469 124.449219 233.152344 C 123.941406 233.214844 123.433594 233.273438 122.929688 233.332031 C 122.230469 226.566406 121.53125 219.800781 120.832031 212.75 Z M 120.832031 212.75 "/>
<path style=" stroke:none;fill-rule:nonzero;fill:rgb(51.764709%,0%,0%);fill-opacity:1;" d="M 95.414062 211.324219 C 95.6875 210.203125 95.921875 209.390625 96.25 208.265625 C 96.25 215.414062 96.25 222.148438 96.25 228.886719 C 95.960938 228.882812 95.671875 228.878906 95.378906 228.875 C 95.378906 223.128906 95.378906 217.378906 95.414062 211.324219 Z M 95.414062 211.324219 "/>
<path style=" stroke:none;fill-rule:nonzero;fill:rgb(49.411765%,0%,0%);fill-opacity:1;" d="M 74.90625 160.214844 C 74.714844 160.523438 74.53125 160.53125 74.066406 160.546875 C 72.949219 156.203125 72.109375 151.855469 71.273438 147.507812 C 71.753906 147.417969 72.230469 147.332031 72.710938 147.242188 C 73.445312 151.464844 74.183594 155.6875 74.90625 160.214844 Z M 74.90625 160.214844 "/>
<path style=" stroke:none;fill-rule:nonzero;fill:rgb(56.078434%,0%,0%);fill-opacity:1;" d="M 89.890625 248.160156 C 89.46875 246.851562 89.375 245.273438 88.5625 244.292969 C 86.984375 242.394531 85.003906 240.835938 83.066406 238.914062 C 82.945312 238.691406 83.21875 238.46875 83.332031 238.328125 C 86.019531 240.28125 88.609375 242.355469 91.160156 244.476562 C 92.855469 245.886719 92.496094 247.191406 90.464844 248.339844 C 90.105469 248.335938 89.890625 248.160156 89.890625 248.160156 Z M 89.890625 248.160156 "/>
<path style=" stroke:none;fill-rule:nonzero;fill:rgb(46.27451%,0%,0%);fill-opacity:1;" d="M 86.890625 216.621094 C 88.433594 212.164062 90.097656 207.816406 91.761719 203.46875 C 92.25 203.667969 92.738281 203.867188 93.226562 204.066406 C 91.363281 208.234375 89.5 212.40625 87.457031 216.75 C 87.277344 216.929688 87.011719 216.734375 86.890625 216.621094 Z M 86.890625 216.621094 "/>
<path style=" stroke:none;fill-rule:nonzero;fill:rgb(58.039218%,0%,0%);fill-opacity:1;" d="M 136.90625 229.152344 C 137.015625 228.871094 137.210938 228.84375 137.703125 228.78125 C 137.960938 229.160156 137.921875 229.570312 137.882812 229.976562 C 137.589844 229.789062 137.292969 229.597656 136.90625 229.152344 Z M 136.90625 229.152344 "/>
<path style=" stroke:none;fill-rule:nonzero;fill:rgb(56.078434%,0%,0%);fill-opacity:1;" d="M 89.242188 249.746094 C 89.335938 249.308594 89.425781 248.875 89.703125 248.296875 C 89.890625 248.160156 90.105469 248.335938 90.21875 248.421875 C 90.109375 248.875 89.886719 249.238281 89.457031 249.675781 C 89.25 249.75 89.242188 249.746094 89.242188 249.746094 Z M 89.242188 249.746094 "/>
<path style=" stroke:none;fill-rule:nonzero;fill:rgb(56.078434%,0%,0%);fill-opacity:1;" d="M 89.25 249.75 C 89.15625 249.757812 89.058594 249.761719 89.101562 249.753906 C 89.242188 249.746094 89.25 249.75 89.25 249.75 Z M 89.25 249.75 "/>
</g>
</svg>
